<svg width="107" height="87" viewBox="0 0 107 87" fill="none" xmlns="http://www.w3.org/2000/svg">
<g filter="url(#filter0_d_234_10)">
<path fill-rule="evenodd" clip-rule="evenodd" d="M10.2565 0.0866273C8.70789 0.328646 7.60709 0.885741 6.51062 1.98221C5.36355 3.12929 4.66309 4.42977 4.20052 6.2708C3.80274 7.85465 3.9908 9.45229 4.81827 11.5192C5.40982 12.9967 7.45684 15.7905 8.90166 17.0923C11.0432 19.0216 14.6512 21.5796 18.6643 24.014C21.4571 25.7081 28.9065 29.3904 29.5431 29.3917C30.5205 29.3937 31.1691 28.3291 30.7912 27.3441C30.7261 27.1746 29.0353 26.2394 27.0337 25.266C22.7115 23.1642 20.6599 22.0178 17.2234 19.7841C12.1582 16.4919 8.94656 13.5258 7.67208 10.9635C7.06299 9.73862 6.99446 9.43397 6.98915 7.9281C6.98403 6.41416 7.04173 6.15087 7.59469 5.17118C7.94816 4.54477 8.55764 3.839 9.0401 3.49734C9.8144 2.9489 9.99656 2.90696 11.5796 2.91267C13.0632 2.91818 13.4831 3.00365 14.8088 3.5702C17.5491 4.7413 21.1003 7.16916 24.0547 9.89162C24.881 10.6529 25.6011 11.2758 25.6549 11.2758C25.7089 11.2758 26.1285 10.8272 26.5877 10.2788L27.4225 9.28156L26.5568 8.39146C24.3044 6.07506 20.1298 3.09502 17.0655 1.61593C14.242 0.253224 12.1696 -0.212105 10.2565 0.0866273ZM82.3065 3.72951C80.0862 3.75373 71.6677 3.86657 63.5988 3.98058C55.5299 4.0946 46.8899 4.19858 44.3988 4.21158C41.9077 4.22457 39.2493 4.31082 38.4911 4.40318C36.7381 4.61665 34.7842 5.58157 33.1419 7.04471C31.9005 8.15082 26.8213 14.0327 27.1074 14.0327C27.2752 14.0327 28.5914 13.4699 34.956 10.6768C37.1272 9.72385 39.4752 8.79614 40.1734 8.61517C41.9885 8.14492 44.6489 8.18647 46.7725 8.71836C48.9641 9.26758 48.7089 9.16931 62.6142 14.8127C69.0585 17.4283 77.2997 20.7724 80.9281 22.2444C84.5564 23.7164 89.5188 25.7374 91.9557 26.7358C94.3927 27.734 96.4387 28.4967 96.5023 28.4304C96.6305 28.2968 96.4915 25.0435 95.9167 14.722C95.4982 7.20874 95.3852 6.5717 94.2611 5.40079C92.9858 4.07215 91.271 3.5698 88.2538 3.6407C87.203 3.66551 84.5268 3.70529 82.3065 3.72951ZM40.7997 10.9782C40.2282 11.1389 38.6331 11.7701 37.255 12.3807C34.695 13.515 21.9165 18.9788 20.2273 19.6614C19.7131 19.8689 19.2923 20.0997 19.2919 20.174C19.2911 20.3207 21.7212 21.7206 25.0019 23.4634L27.0696 24.5618L29.3342 24.5811C31.1693 24.5967 31.8101 24.6827 32.7124 25.0344C34.738 25.8241 36.3561 27.4869 36.8395 29.2756C37.193 30.5833 36.9662 32.8704 36.3665 34.0446C33.7622 39.1444 24.839 38.7027 22.8285 33.3747C22.28 31.9212 22.3547 29.6869 22.9951 28.3927C23.2284 27.9207 23.3546 27.4765 23.2753 27.4052C23.1961 27.3341 22.27 26.8241 21.2176 26.2721C18.955 25.0852 15.0047 22.7342 14.8483 22.4811C14.6268 22.1225 14.141 22.3232 13.2515 23.1404C11.225 25.0025 11.2677 26.7197 13.4892 32.7217C14.7129 36.0275 17.9221 45.5073 18.9955 48.9866C20.8935 55.1386 22.0065 56.2012 29.6296 59.1366C31.2542 59.762 38.3434 62.5784 45.3834 65.395C59.0491 70.8622 74.1941 76.8512 74.3544 76.8512C74.4079 76.8512 74.9835 77.1151 75.6334 77.4376C77.0223 78.1267 79.1758 78.8212 79.9149 78.8184C80.2014 78.8175 80.8841 78.6077 81.4322 78.3525C82.6568 77.7824 83.2289 76.9406 84.7287 73.5035C86.4137 69.641 89.05 64.1209 91.3114 59.7189C92.452 57.4986 94.2052 54.0869 95.2071 52.1373C96.2091 50.1878 97.752 47.1534 98.6356 45.3945C99.5194 43.6354 100.691 41.42 101.24 40.4714C103.038 37.3632 103.298 36.2943 102.591 34.9101C101.962 33.6764 100.281 32.626 96.9322 31.3736C96.0905 31.0589 92.2117 29.505 88.3127 27.9205C84.4136 26.3361 78.9637 24.1229 76.2019 23.002C73.4401 21.8813 69.7182 20.3705 67.9311 19.6448C50.3981 12.5245 48.3576 11.7132 46.8604 11.2679C44.973 10.7065 42.2315 10.5755 40.7997 10.9782ZM58.4296 23.8094C59.1066 24.0967 59.6604 24.418 59.6604 24.5234C59.6604 24.754 53.5567 38.6769 53.3543 38.9082C53.1843 39.1022 50.208 37.8575 50.208 37.5924C50.208 37.4906 51.2714 34.9934 52.5711 32.0431C53.8708 29.0928 54.9342 26.6287 54.9342 26.5673C54.9342 26.5056 54.048 26.5094 52.965 26.5753C51.6879 26.6531 50.9957 26.6252 50.9957 26.4958C50.9957 26.3861 51.2624 25.7081 51.5885 24.9891L52.1812 23.6819L53.2131 23.6674C53.7806 23.6593 54.6437 23.5817 55.1311 23.4951C56.6573 23.2235 57.1628 23.2718 58.4296 23.8094ZM67.7582 27.6253C68.8689 28.1822 69.6329 28.8998 70.1646 29.885C70.5218 30.5471 70.588 30.9868 70.5795 32.6419C70.5707 34.3796 70.4959 34.7965 69.9433 36.1866C68.185 40.6102 65.6746 43.1773 63.1071 43.1773C61.3066 43.1773 59.2502 41.9326 58.4459 40.3558C57.2295 37.9717 58.3327 33.2666 60.9047 29.8675C62.8956 27.2368 65.3698 26.4275 67.7582 27.6253ZM25.3024 29.3829C24.8709 30.217 24.917 31.9988 25.394 32.9338C26.4351 34.9747 29.5087 35.8185 32.1106 34.7774C32.533 34.6082 32.8788 34.403 32.8788 34.3213C32.8788 34.2396 32.3233 34.1281 31.6443 34.0738C29.1335 33.8721 26.8991 32.0559 26.1706 29.6247C25.8786 28.6501 25.7061 28.6021 25.3024 29.3829ZM64.4836 30.8393C64.0281 31.3147 63.2627 32.5187 62.7623 33.547C60.7184 37.747 60.6974 40.2235 62.7054 40.2235C63.6376 40.2235 64.6886 39.1032 65.7199 37.0107C67.2758 33.8536 67.7669 31.1977 66.9465 30.3773C66.2701 29.7009 65.4219 29.86 64.4836 30.8393ZM78.4364 30.9746C78.9047 31.1948 79.5906 31.6871 79.9604 32.0685C80.5787 32.7065 80.6327 32.8601 80.6321 33.9822C80.6309 36.3059 78.8326 39.023 77.0778 39.3523C76.1436 39.5276 74.4717 39.0207 73.6202 38.3043C72.4255 37.299 72.1768 35.9004 72.8515 33.9806C73.3371 32.5992 74.0905 31.4921 74.8965 30.9756C75.7244 30.4453 77.3092 30.4447 78.4364 30.9746ZM76.2592 32.9866C75.7106 33.5866 75.2844 34.4657 75.0058 35.5722C74.8014 36.3835 74.8158 36.5408 75.1243 36.8819C75.58 37.3854 76.2929 37.3756 76.8096 36.8589C77.8277 35.8408 78.5126 33.3576 77.9348 32.7798C77.5557 32.4007 76.6983 32.5065 76.2592 32.9866ZM87.1374 34.6011C87.513 34.7581 87.8204 34.9326 87.8204 34.9887C87.8204 35.045 84.416 37.9733 80.2552 41.496L72.6898 47.9011L71.867 47.5516L71.0441 47.2022L78.5953 40.7743C82.7484 37.2387 86.2158 34.3394 86.3005 34.331C86.3852 34.3227 86.7619 34.4442 87.1374 34.6011ZM49.8869 40.7174C52.705 41.4513 55.3477 43.5011 55.9783 45.442C56.7656 47.8645 56.5086 50.1685 55.1422 52.9402C52.8116 57.6679 48.5618 59.1874 44.0225 56.9161C42.5777 56.193 40.8713 54.5144 40.3188 53.2728C38.4002 48.9604 41.8233 41.9379 46.4525 40.6896C47.6774 40.3594 48.5393 40.3665 49.8869 40.7174ZM84.5792 43.4465C85.7137 43.9749 86.5445 44.8598 86.7397 45.748C87.1514 47.6231 85.2846 51.0846 83.5532 51.6561C81.9678 52.1793 79.6471 51.1844 78.8417 49.6364C78.0144 48.0463 79.264 44.4168 81.0047 43.3555C81.8652 42.8307 83.3374 42.8682 84.5792 43.4465ZM47.2211 43.7732C45.1983 44.8417 43.0584 49.3749 43.413 51.84C43.6659 53.5987 45.0672 54.8689 47.047 55.1345C48.7437 55.362 50.4991 53.902 51.8025 51.1793C53.153 48.3582 53.2257 46.1515 52.0154 44.7131C50.942 43.4377 48.6917 42.9964 47.2211 43.7732ZM82.3538 45.3927C81.7888 45.9957 80.9324 47.8826 80.93 48.5295C80.9257 49.6784 82.1685 50.0574 82.9995 49.1608C83.531 48.5874 84.2757 46.7659 84.2757 46.0394C84.2757 44.9967 83.0966 44.5999 82.3538 45.3927ZM66.4542 48.2883C68.7287 49.2859 70.6581 50.1679 70.7418 50.2481C70.9285 50.4269 69.9799 52.6296 69.7162 52.6296C69.6123 52.6296 68.1296 52.0139 66.4215 51.2614C64.7134 50.509 63.3027 49.9107 63.2865 49.9322C63.2704 49.9537 62.8994 50.7831 62.4622 51.7754L61.667 53.5796L64.7006 54.9057C66.3691 55.6349 67.7342 56.2572 67.7342 56.2885C67.7342 56.5271 66.6663 58.7343 66.5509 58.7343C66.4698 58.7343 65.0933 58.1581 63.4919 57.4539C61.8905 56.7497 60.5566 56.1971 60.5278 56.2259C60.4815 56.2719 58.6944 60.312 57.9647 62.0197L57.6966 62.6469L56.1185 61.9372C55.2505 61.5467 54.5404 61.1259 54.5404 61.0016C54.5404 60.8776 55.9671 57.5474 57.7106 53.6013C59.4544 49.6551 60.9252 46.3183 60.979 46.1857C61.0552 45.9985 61.2149 46.0038 61.6979 46.2096C62.0394 46.3551 64.1797 47.2905 66.4542 48.2883ZM78.2696 53.4083C80.5441 54.4059 82.4735 55.2879 82.5572 55.3681C82.7439 55.5469 81.7953 57.7496 81.5316 57.7496C81.4277 57.7496 79.945 57.1339 78.2369 56.3814C76.5288 55.629 75.118 55.0307 75.1019 55.0522C75.0857 55.0737 74.7147 55.9031 74.2776 56.8954L73.4824 58.6996L76.516 60.0257C78.1845 60.7549 79.5496 61.3772 79.5496 61.4085C79.5496 61.6471 78.4817 63.8543 78.3663 63.8543C78.2852 63.8543 76.9087 63.2781 75.3073 62.5739C73.7059 61.8697 72.3719 61.3171 72.3432 61.3459C72.2969 61.3919 70.5098 65.432 69.78 67.1397L69.512 67.7669L67.9339 67.0572C67.0658 66.6667 66.3557 66.2459 66.3557 66.1216C66.3557 65.9976 67.7825 62.6674 69.526 58.7213C71.2698 54.7751 72.7406 51.4383 72.7943 51.3057C72.8705 51.1185 73.0303 51.1238 73.5133 51.3296C73.8548 51.4751 75.9951 52.4105 78.2696 53.4083Z" fill="#E7D216"/>
</g>
<defs>
<filter id="filter0_d_234_10" x="0" y="0" width="106.955" height="86.8184" filterUnits="userSpaceOnUse" color-interpolation-filters="sRGB">
<feFlood flood-opacity="0" result="BackgroundImageFix"/>
<feColorMatrix in="SourceAlpha" type="matrix" values="0 0 0 0 0 0 0 0 0 0 0 0 0 0 0 0 0 0 127 0" result="hardAlpha"/>
<feOffset dy="4"/>
<feGaussianBlur stdDeviation="2"/>
<feComposite in2="hardAlpha" operator="out"/>
<feColorMatrix type="matrix" values="0 0 0 0 0 0 0 0 0 0 0 0 0 0 0 0 0 0 1 0"/>
<feBlend mode="normal" in2="BackgroundImageFix" result="effect1_dropShadow_234_10"/>
<feBlend mode="normal" in="SourceGraphic" in2="effect1_dropShadow_234_10" result="shape"/>
</filter>
</defs>
</svg>
