<svg width="99" height="79" viewBox="0 0 99 79" fill="none" xmlns="http://www.w3.org/2000/svg">
<path fill-rule="evenodd" clip-rule="evenodd" d="M6.25649 0.0866273C4.70789 0.328646 3.60709 0.885741 2.51062 1.98221C1.36355 3.12929 0.663093 4.42977 0.200521 6.2708C-0.197264 7.85465 -0.00920335 9.45229 0.818267 11.5192C1.40982 12.9967 3.45684 15.7905 4.90166 17.0923C7.0432 19.0216 10.6512 21.5796 14.6643 24.014C17.4571 25.7081 24.9065 29.3904 25.5431 29.3917C26.5205 29.3937 27.1691 28.3291 26.7912 27.3441C26.7261 27.1746 25.0353 26.2394 23.0337 25.266C18.7115 23.1642 16.6599 22.0178 13.2234 19.7841C8.15818 16.4919 4.94656 13.5258 3.67208 10.9635C3.06299 9.73862 2.99446 9.43397 2.98914 7.9281C2.98402 6.41416 3.04173 6.15087 3.59469 5.17118C3.94816 4.54477 4.55764 3.839 5.0401 3.49734C5.8144 2.9489 5.99656 2.90696 7.57962 2.91267C9.06324 2.91818 9.48308 3.00365 10.8088 3.5702C13.5491 4.7413 17.1003 7.16916 20.0547 9.89162C20.881 10.6529 21.6011 11.2758 21.6549 11.2758C21.7089 11.2758 22.1285 10.8272 22.5877 10.2788L23.4225 9.28156L22.5568 8.39146C20.3044 6.07506 16.1298 3.09502 13.0655 1.61593C10.242 0.253224 8.1696 -0.212105 6.25649 0.0866273ZM78.3065 3.72951C76.0862 3.75373 67.6677 3.86657 59.5988 3.98058C51.5299 4.0946 42.8899 4.19858 40.3988 4.21157C37.9077 4.22457 35.2493 4.31082 34.4911 4.40318C32.7381 4.61665 30.7842 5.58157 29.1419 7.04471C27.9005 8.15082 22.8213 14.0327 23.1074 14.0327C23.2752 14.0327 24.5914 13.4699 30.956 10.6768C33.1272 9.72385 35.4752 8.79614 36.1734 8.61517C37.9885 8.14492 40.6489 8.18647 42.7725 8.71836C44.9641 9.26757 44.7089 9.16931 58.6142 14.8127C65.0585 17.4283 73.2997 20.7724 76.9281 22.2444C80.5564 23.7164 85.5188 25.7374 87.9557 26.7358C90.3927 27.734 92.4387 28.4967 92.5023 28.4304C92.6305 28.2968 92.4915 25.0435 91.9167 14.722C91.4982 7.20874 91.3852 6.5717 90.2611 5.40079C88.9858 4.07215 87.271 3.5698 84.2538 3.6407C83.203 3.66551 80.5268 3.70529 78.3065 3.72951ZM36.7997 10.9782C36.2282 11.1389 34.6331 11.7701 33.255 12.3807C30.695 13.515 17.9165 18.9788 16.2273 19.6614C15.7131 19.8689 15.2923 20.0997 15.2919 20.174C15.2911 20.3207 17.7212 21.7206 21.0019 23.4634L23.0696 24.5618L25.3342 24.5811C27.1693 24.5967 27.8101 24.6827 28.7124 25.0344C30.738 25.8241 32.3561 27.4869 32.8395 29.2755C33.193 30.5833 32.9662 32.8704 32.3665 34.0446C29.7622 39.1444 20.839 38.7027 18.8285 33.3747C18.28 31.9212 18.3547 29.6869 18.9951 28.3927C19.2284 27.9207 19.3546 27.4765 19.2753 27.4052C19.1961 27.3341 18.27 26.8241 17.2176 26.2721C14.955 25.0852 11.0047 22.7342 10.8483 22.4811C10.6268 22.1225 10.141 22.3232 9.25149 23.1404C7.22496 25.0025 7.26769 26.7197 9.48918 32.7217C10.7129 36.0275 13.9221 45.5073 14.9955 48.9866C16.8935 55.1386 18.0065 56.2012 25.6296 59.1366C27.2542 59.762 34.3434 62.5784 41.3834 65.395C55.0491 70.8622 70.1941 76.8512 70.3544 76.8512C70.4079 76.8512 70.9835 77.1151 71.6334 77.4376C73.0223 78.1267 75.1758 78.8212 75.9149 78.8184C76.2014 78.8175 76.8841 78.6077 77.4322 78.3525C78.6568 77.7824 79.2289 76.9406 80.7287 73.5035C82.4137 69.641 85.05 64.1209 87.3114 59.7189C88.452 57.4986 90.2052 54.0869 91.2071 52.1373C92.2091 50.1878 93.752 47.1534 94.6356 45.3945C95.5194 43.6354 96.6914 41.42 97.2401 40.4714C99.0378 37.3632 99.2975 36.2943 98.5914 34.9101C97.962 33.6764 96.2811 32.626 92.9322 31.3736C92.0905 31.0589 88.2117 29.505 84.3127 27.9205C80.4136 26.3361 74.9637 24.1229 72.2019 23.002C69.4401 21.8813 65.7182 20.3705 63.9311 19.6448C46.3981 12.5245 44.3576 11.7132 42.8604 11.2679C40.973 10.7065 38.2315 10.5755 36.7997 10.9782ZM54.4296 23.8094C55.1066 24.0967 55.6604 24.418 55.6604 24.5234C55.6604 24.754 49.5567 38.6769 49.3543 38.9082C49.1843 39.1022 46.208 37.8575 46.208 37.5924C46.208 37.4906 47.2714 34.9934 48.5711 32.0431C49.8708 29.0928 50.9342 26.6287 50.9342 26.5673C50.9342 26.5056 50.048 26.5094 48.965 26.5753C47.6879 26.6531 46.9957 26.6252 46.9957 26.4958C46.9957 26.3861 47.2624 25.7081 47.5885 24.9891L48.1812 23.682L49.2131 23.6674C49.7806 23.6593 50.6437 23.5817 51.1311 23.4951C52.6573 23.2235 53.1628 23.2718 54.4296 23.8094ZM63.7582 27.6253C64.8689 28.1822 65.6329 28.8998 66.1646 29.885C66.5218 30.5471 66.588 30.9868 66.5795 32.642C66.5707 34.3796 66.4959 34.7965 65.9433 36.1866C64.185 40.6102 61.6746 43.1773 59.1071 43.1773C57.3066 43.1773 55.2502 41.9326 54.4459 40.3558C53.2295 37.9717 54.3327 33.2666 56.9047 29.8675C58.8956 27.2368 61.3698 26.4275 63.7582 27.6253ZM21.3024 29.3829C20.8709 30.217 20.917 31.9988 21.394 32.9338C22.4351 34.9747 25.5087 35.8185 28.1106 34.7774C28.533 34.6082 28.8788 34.403 28.8788 34.3213C28.8788 34.2396 28.3233 34.1281 27.6443 34.0738C25.1335 33.8721 22.8991 32.0559 22.1706 29.6247C21.8786 28.6501 21.7061 28.6021 21.3024 29.3829ZM60.4836 30.8393C60.0281 31.3147 59.2627 32.5187 58.7623 33.547C56.7184 37.747 56.6974 40.2235 58.7054 40.2235C59.6376 40.2235 60.6886 39.1032 61.7199 37.0107C63.2758 33.8536 63.7669 31.1977 62.9465 30.3773C62.2701 29.7009 61.4219 29.86 60.4836 30.8393ZM74.4364 30.9746C74.9047 31.1948 75.5906 31.6871 75.9604 32.0685C76.5787 32.7065 76.6327 32.8601 76.6321 33.9822C76.6309 36.3059 74.8326 39.023 73.0778 39.3523C72.1436 39.5276 70.4717 39.0207 69.6202 38.3043C68.4255 37.299 68.1768 35.9004 68.8515 33.9806C69.3371 32.5992 70.0905 31.4921 70.8965 30.9756C71.7244 30.4453 73.3092 30.4447 74.4364 30.9746ZM72.2592 32.9866C71.7106 33.5866 71.2844 34.4657 71.0058 35.5722C70.8014 36.3835 70.8158 36.5408 71.1243 36.8819C71.58 37.3854 72.2929 37.3756 72.8096 36.8589C73.8277 35.8408 74.5126 33.3576 73.9348 32.7798C73.5557 32.4007 72.6983 32.5065 72.2592 32.9866ZM83.1374 34.6011C83.513 34.7581 83.8204 34.9326 83.8204 34.9887C83.8204 35.045 80.416 37.9732 76.2552 41.496L68.6898 47.9011L67.867 47.5516L67.0441 47.2022L74.5953 40.7743C78.7484 37.2387 82.2158 34.3394 82.3005 34.331C82.3852 34.3227 82.7619 34.4442 83.1374 34.6011ZM45.8869 40.7174C48.705 41.4513 51.3477 43.5011 51.9783 45.442C52.7656 47.8645 52.5086 50.1685 51.1422 52.9402C48.8116 57.6679 44.5618 59.1874 40.0225 56.9161C38.5777 56.193 36.8713 54.5144 36.3188 53.2728C34.4001 48.9604 37.8233 41.9379 42.4525 40.6896C43.6774 40.3594 44.5393 40.3665 45.8869 40.7174ZM80.5792 43.4465C81.7137 43.9749 82.5445 44.8598 82.7397 45.748C83.1514 47.6231 81.2846 51.0846 79.5532 51.6561C77.9678 52.1793 75.6471 51.1844 74.8417 49.6364C74.0144 48.0463 75.264 44.4168 77.0047 43.3555C77.8652 42.8307 79.3374 42.8682 80.5792 43.4465ZM43.2211 43.7732C41.1983 44.8417 39.0584 49.3749 39.413 51.84C39.6659 53.5987 41.0672 54.8689 43.047 55.1345C44.7437 55.362 46.4991 53.902 47.8025 51.1793C49.153 48.3582 49.2257 46.1515 48.0154 44.7131C46.942 43.4377 44.6917 42.9964 43.2211 43.7732ZM78.3538 45.3927C77.7888 45.9957 76.9324 47.8826 76.93 48.5295C76.9257 49.6784 78.1685 50.0574 78.9995 49.1608C79.531 48.5874 80.2757 46.7659 80.2757 46.0394C80.2757 44.9967 79.0966 44.5999 78.3538 45.3927ZM62.4542 48.2883C64.7287 49.2859 66.6581 50.1679 66.7418 50.2481C66.9285 50.4269 65.9799 52.6296 65.7162 52.6296C65.6123 52.6296 64.1296 52.0139 62.4215 51.2614C60.7134 50.509 59.3027 49.9107 59.2865 49.9322C59.2704 49.9537 58.8994 50.7831 58.4622 51.7754L57.667 53.5796L60.7006 54.9057C62.3691 55.6349 63.7342 56.2572 63.7342 56.2885C63.7342 56.5271 62.6663 58.7343 62.5509 58.7343C62.4698 58.7343 61.0933 58.1581 59.4919 57.4539C57.8905 56.7497 56.5566 56.1971 56.5278 56.2259C56.4815 56.2719 54.6944 60.312 53.9647 62.0197L53.6966 62.6469L52.1185 61.9372C51.2505 61.5467 50.5404 61.1259 50.5404 61.0016C50.5404 60.8776 51.9671 57.5474 53.7106 53.6013C55.4544 49.6551 56.9252 46.3183 56.979 46.1857C57.0552 45.9985 57.2149 46.0038 57.6979 46.2096C58.0394 46.3551 60.1797 47.2905 62.4542 48.2883ZM74.2696 53.4083C76.5441 54.4059 78.4735 55.2879 78.5572 55.3681C78.7439 55.5469 77.7953 57.7496 77.5316 57.7496C77.4276 57.7496 75.945 57.1339 74.2369 56.3814C72.5288 55.629 71.118 55.0307 71.1019 55.0522C71.0857 55.0737 70.7147 55.9031 70.2776 56.8954L69.4824 58.6996L72.516 60.0257C74.1845 60.7549 75.5496 61.3772 75.5496 61.4085C75.5496 61.6471 74.4817 63.8543 74.3663 63.8543C74.2852 63.8543 72.9087 63.2781 71.3073 62.5739C69.7059 61.8697 68.3719 61.3171 68.3432 61.3459C68.2969 61.3919 66.5098 65.432 65.78 67.1397L65.512 67.7669L63.9339 67.0572C63.0658 66.6667 62.3557 66.2459 62.3557 66.1216C62.3557 65.9976 63.7825 62.6674 65.526 58.7213C67.2698 54.7751 68.7406 51.4383 68.7943 51.3057C68.8705 51.1185 69.0303 51.1238 69.5133 51.3296C69.8548 51.4751 71.9951 52.4105 74.2696 53.4083Z" fill="#E7D216"/>
</svg>
